<?xml version="1.0" encoding="utf-8"?>
<!-- Generator: Adobe Illustrator 24.0.3, SVG Export Plug-In . SVG Version: 6.00 Build 0)  -->
<svg version="1.1" id="Layer_1" xmlns="http://www.w3.org/2000/svg" xmlns:xlink="http://www.w3.org/1999/xlink" x="0px" y="0px"
	 viewBox="0 0 406.2 105.6" style="enable-background:new 0 0 406.2 105.6;" xml:space="preserve">
<style type="text/css">
	.st0{clip-path:url(#SVGID_2_);fill:#FFFFFF;}
	.st1{clip-path:url(#SVGID_2_);fill:#00B6DE;}
	.st2{clip-path:url(#SVGID_2_);fill:#8DC63F;}
	.st3{clip-path:url(#SVGID_2_);fill:#008A5E;}
	.st4{clip-path:url(#SVGID_2_);fill:#F7941E;}
	.st5{clip-path:url(#SVGID_2_);fill:#E36F1E;}
	.st6{clip-path:url(#SVGID_2_);fill:#EF4135;}
	.st7{clip-path:url(#SVGID_2_);fill:#BA141A;}
	.st8{clip-path:url(#SVGID_2_);fill:#B51A8A;}
	.st9{clip-path:url(#SVGID_2_);fill:#552988;}
	.st10{clip-path:url(#SVGID_2_);fill:#8E0C3A;}
	.st11{fill:#FFFFFF;}
	.st12{fill:#1D1C1B;}
	.st13{fill:#A19E9D;}
	.st14{fill:#736F6E;}
</style>
<g>
	<path class="st11" d="M112.2,23.2c11.5,0,18.3,2,18.3,12.3c0,10.2-7,12.2-18.3,12.2h-8v17.6c0,5.4,0,5.5,3.2,5.5h1.6v2.7H93.5v-2.7
		h1.6c1.4,0,3,0.2,3.1-1.4c0.1-1.2,0.2-2.7,0.2-4v-35c0-3.4,0.1-4.5-3.4-4.5h-1.4v-2.7H112.2z M104.2,27.3v16.4h6.4
		c7.4,0,13.8-0.3,13.8-8c0-6.6-3.1-8.4-14-8.4H104.2z"/>
	<path class="st11" d="M142.9,47.5c0,1.4-0.2,2.9-0.3,4c3.5-7.6,6-11.5,9.1-11.5c2.6,0,3.7,0.6,5.4,1.4l-1.9,5
		c-1.6-1.1-2.3-2.3-3.8-2.3c-2.4,0-4.9,4.4-8.5,11.9V65c0,5.4-0.3,5.7,2.8,5.7h1.1v2.7h-13.2v-2.7h1.2c3.1,0,2.7-0.3,2.7-5v-17
		c0-4.7,0.2-5-2.7-5h-1.3v-2.7h9.2V47.5z"/>
	<path class="st11" d="M173.7,39.9c9.6,0,15.4,7.1,15.4,17c0,10.2-6.1,17.6-16.1,17.6c-10.3,0-15.8-7.5-15.8-17.4
		C157.3,46.6,164.3,39.9,173.7,39.9 M173.3,70.7c6.6,0,9.9-4.7,9.9-14.1c0-8.8-3.4-13-9.6-13c-6.6,0-10.2,4.8-10.2,14.3
		C163.4,65.8,166.7,70.7,173.3,70.7"/>
	<path class="st11" d="M217.1,70c-2,2.1-6.3,4.6-11.1,4.6c-7.6,0-12.8-7.2-12.8-17.1c0-11.1,5.9-17.6,13.5-17.6
		c4.1,0,7.3,1.7,10.3,4.5v-15c0-3-0.2-3.6-2.7-3.6H213v-2.7h9.3V65c0,5.5-0.3,5.7,2.8,5.7h1.2v2.7H217L217.1,70z M217,47.6
		c-1.3-1.1-6-3.9-9.8-3.9c-4.5,0-7.9,4.6-7.9,13.9c0,8.9,3.2,13.3,7.8,13.3c3.6,0,6.7-1.7,9.9-3.9V47.6z"/>
	<path class="st11" d="M239.8,65.1c0,5.4-0.3,5.6,2.8,5.6h1.2v2.7h-13.2v-2.7h1.2c3.1,0,2.7-0.3,2.7-5.6V45.8c0-1.6-0.3-2.1-2.5-2.1
		h-1.4v-2.7h9.2V65.1z M240.8,27.9c0,2-1.6,3.7-3.7,3.7c-2,0-3.6-1.7-3.6-3.7c0-2.1,1.6-3.8,3.6-3.8
		C239.2,24.1,240.8,25.8,240.8,27.9"/>
	<path class="st11" d="M274.9,74.4c0,5.2-0.7,9.4-1.3,10.6c-2,3.6-5.9,5.1-11.8,5.1c-4.5,0-9.4-0.9-13.6-2.5l1.5-4.6
		c4,2.3,7.9,3.3,12.5,3.3c6.7,0,7.4-4,7.4-10v-8.1c-3.1,2.8-7,4.6-10.8,4.6c-7.8,0-12.9-7.2-12.9-16.3c0-9.8,5.3-16.7,13.3-16.7
		c4,0,8.2,2.2,10.5,4.4l-0.2-3.2h9.3v2.7h-1.2c-3.1,0-2.7,0.2-2.7,5.5V74.4z M269.6,47.4c-3.3-2.4-6.7-3.7-9.6-3.7
		c-4.9,0-8,4.4-8,13.2c0,8.1,2.8,12.3,8.2,12.3c3,0,7-1.8,9.5-3.9V47.4z"/>
	<path class="st11" d="M292.4,65.1c0,5.4-0.3,5.6,2.8,5.6h1.2v2.7h-13.2v-2.7h1.2c3.1,0,2.7-0.3,2.7-5.6V45.8c0-1.6-0.3-2.1-2.5-2.1
		h-1.4v-2.7h9.2V65.1z M293.5,27.9c0,2-1.6,3.7-3.7,3.7c-2,0-3.6-1.7-3.6-3.7c0-2.1,1.6-3.8,3.6-3.8
		C291.8,24.1,293.5,25.8,293.5,27.9"/>
	<path class="st11" d="M315.7,39.9c9.6,0,15.4,7.1,15.4,17c0,10.2-6.1,17.6-16.1,17.6c-10.3,0-15.8-7.5-15.8-17.4
		C299.3,46.6,306.3,39.9,315.7,39.9 M315.2,70.7c6.6,0,9.9-4.7,9.9-14.1c0-8.8-3.4-13-9.6-13c-6.6,0-10.2,4.8-10.2,14.3
		C305.4,65.8,308.7,70.7,315.2,70.7"/>
	<path class="st11" d="M358.3,47.2c0-2.6-0.1-3.5-2.4-3.5h-1.6v-2.7h9.3v24c0,5.4-0.5,5.7,2.7,5.7h1.1v2.7h-9.2
		c0-1.8,0.1-3.4,0.1-3.8c-3.3,3.3-6.7,5-11.7,5c-10,0-9.7-7.2-9.7-14.1V47.2c0-2.5,0-3.5-2.3-3.5h-1.8v-2.7h9.4v20.8
		c0,4.9,0,8.9,5.7,8.9c3.2,0,7.2-1.4,10.3-4.4V47.2z"/>
	<path class="st11" d="M391.8,49h-2.5v-1c0-2.7-3.4-4.3-7.5-4.3c-3.5,0-6,1.7-6,4.8c0,5.9,17.2,7.2,17.2,17c0,5.5-3.8,8.9-11,8.9
		c-2.4,0-6.3-0.7-9.8-2.4v-6.8h2.5v1c0,2.9,4.2,4.3,7.6,4.3c4.2,0,6.3-1.9,6.3-4.4c0-6.4-17.2-6.9-17.2-17c0-5.2,4.1-9.3,10.8-9.3
		c3.4,0,6.6,1,9.6,2.3V49z"/>
	<path class="st11" d="M48.1,60.7c3,1.6,5.9,3.5,8.7,5.7c1.6,1.3,2.8,3,3.3,5c2.5-5.8,6.1-10.9,10.7-15.1c-0.1,0-0.2,0-0.2,0
		c-1.9,0-3.8-0.6-5.4-1.7c-2.8-2-5.5-4.2-7.9-6.7c-1.8,2-3.6,4.1-5.1,6.3C50.6,56.2,49.3,58.4,48.1,60.7"/>
	<path class="st11" d="M60.1,21.5c-0.6,1.9-1.7,3.7-3.3,5c-2.7,2.1-5.6,4-8.7,5.7c1.2,2.4,2.7,4.7,4.3,6.9c1.5,2.1,3.2,4.1,4.9,5.9
		c2.5-2.5,5.1-4.7,8-6.7c1.6-1.1,3.5-1.7,5.4-1.7c0.1,0,0.2,0,0.2,0C66.2,32.5,62.5,27.3,60.1,21.5"/>
	<path class="st11" d="M45.5,31.3c-1.5-3.2-2.8-6.5-3.8-9.8c-0.6-2-0.5-4.1,0.1-6c-5.3,3.2-11.2,5.1-17.2,5.8
		c1.6,1.1,2.9,2.8,3.5,4.8c1.1,3.3,2,6.8,2.6,10.2c2.6-0.5,5.2-1.2,7.8-2C40.9,33.4,43.2,32.4,45.5,31.3"/>
	<path class="st11" d="M29.1,38.5c-2.9,0.4-5.8,0.7-8.6,0.7c-0.7,0-1.2,0-1.6,0c-2.1-0.1-4-0.8-5.5-2c1.3,6.1,1.3,12.5,0,18.6
		c1.6-1.2,3.5-1.9,5.5-2c0.5,0,1.1,0,1.6,0c2.9,0,5.8,0.2,8.7,0.7c0.4-2.7,0.5-5.4,0.5-8.2C29.7,43.7,29.5,41.1,29.1,38.5"/>
	<path class="st11" d="M30.7,56.7c-0.6,3.5-1.4,6.9-2.6,10.2c-0.7,2-1.9,3.6-3.5,4.8c6.1,0.6,12,2.6,17.3,5.7c-0.6-1.9-0.7-4-0.1-6
		c1-3.4,2.2-6.6,3.8-9.8c-2.4-1.2-4.9-2.2-7.4-3.1C35.7,57.7,33.2,57.1,30.7,56.7"/>
	<path class="st11" d="M47.6,17.5c0.5-1.5,1.9-2.5,3.3-2.5c0.4,0,0.7,0.1,1.1,0.2c1.8,0.6,2.9,2.7,2.2,4.6c-0.5,1.5-1.9,2.5-3.3,2.5
		c-0.4,0-0.7-0.1-1.1-0.2C48,21.5,47,19.4,47.6,17.5 M45.8,12c-2.6,2.1-3.8,5.7-2.8,9.1c1,3.5,2.3,7,4,10.2c3.2-1.7,6.2-3.6,9.1-5.9
		c2.8-2.2,3.8-5.8,3-9c-0.9-3-3-5-5.4-5.8c-0.8-0.3-1.7-0.4-2.5-0.4C49.1,10.2,47.3,10.8,45.8,12"/>
	<path class="st11" d="M67.2,45.3c0.5-1.5,1.9-2.5,3.3-2.5c0.4,0,0.7,0.1,1.1,0.2c1.8,0.6,2.8,2.7,2.2,4.6C73.4,49.1,72,50,70.6,50
		c-0.4,0-0.7-0.1-1.1-0.2C67.6,49.3,66.6,47.2,67.2,45.3 M78.9,46.5c0-2.9-1.4-5.5-3.7-7.1c-1.4-0.9-3-1.4-4.6-1.4
		c-1.6,0-3.3,0.5-4.7,1.5c-3,2.1-5.7,4.4-8.3,7c2.5,2.6,5.3,4.9,8.2,7c1.4,1,3.1,1.5,4.7,1.5c1.6,0,3.2-0.5,4.6-1.4
		C77.5,51.9,78.9,49.4,78.9,46.5"/>
	<path class="st11" d="M54.3,75.3c-0.5,1.5-1.9,2.5-3.3,2.5c-0.4,0-0.7-0.1-1.1-0.2C48,77,47,74.9,47.6,73c0.5-1.5,1.9-2.5,3.3-2.5
		c0.4,0,0.7,0.1,1.1,0.2C53.9,71.4,54.9,73.4,54.3,75.3 M58.9,76.5c0.9-3.2-0.2-6.9-2.9-9c-2.8-2.3-5.9-4.2-9.1-5.9
		c-1.6,3.3-2.9,6.7-4,10.2c-1,3.4,0.2,7,2.8,9.1c1.6,1.2,3.4,1.8,5.2,1.8c0.7,0,1.4-0.1,2.1-0.3C55.8,81.7,58.1,79.5,58.9,76.5"/>
	<path class="st11" d="M19.1,67.2c-0.4,0-0.7-0.1-1.1-0.2c-1.8-0.6-2.9-2.7-2.2-4.6c0.5-1.5,1.9-2.5,3.3-2.5c0.4,0,0.7,0.1,1.1,0.2
		c1.8,0.6,2.8,2.7,2.3,4.5C22,66.2,20.6,67.2,19.1,67.2 M19.3,72.1c0.1,0,0.1,0,0.2,0c3.3-0.1,6.3-2.3,7.5-5.7
		c1.2-3.5,2.1-7,2.6-10.7c-3-0.5-6-0.7-9.1-0.7c-0.5,0-1,0-1.6,0c-3.5,0.1-6.4,2.4-7.6,5.5c-1,2.8-0.6,5.7,1.1,8.1
		C14.1,70.9,16.5,72.1,19.3,72.1"/>
	<path class="st11" d="M15.8,28.2c0.5-1.5,1.9-2.5,3.3-2.5c0.4,0,0.7,0.1,1.1,0.2c1.8,0.6,2.8,2.7,2.2,4.5c-0.5,1.5-1.9,2.5-3.3,2.5
		c-0.4,0-0.7-0.1-1.1-0.2C16.2,32.1,15.2,30.1,15.8,28.2 M18.9,37.8c0.5,0,1.1,0,1.6,0c3,0,6.1-0.3,9.1-0.7
		c-0.6-3.6-1.4-7.2-2.6-10.6c-1.2-3.4-4.2-5.5-7.5-5.7c-0.1,0-0.2,0-0.3,0c-2.8,0-5.2,1.2-6.8,3.4c-1.7,2.3-2.1,5.2-1.1,8.1
		C12.5,35.4,15.4,37.7,18.9,37.8"/>
</g>
</svg>
